<?xml version="1.0" encoding="utf-8"?>

<!DOCTYPE svg PUBLIC "-//W3C//DTD SVG 1.1//EN" "http://www.w3.org/Graphics/SVG/1.1/DTD/svg11.dtd">
<svg version="1.1" id="Layer_1" xmlns="http://www.w3.org/2000/svg" xmlns:xlink="http://www.w3.org/1999/xlink" x="0px" y="0px"
	 viewBox="-25.5643 145.8195 1046.1285 1162.5737" enable-background="new -25.5643 145.8195 1046.1285 1162.5737"
	 xml:space="preserve">
<g>
	<path fill="#535353" stroke="#535353" stroke-width="0.3" d="M294.46,202.02c-0.22-14.66,12.88-27.73,27.48-27.75
		c98.02-0.04,196.04,0,294.06-0.02c5.95,0.01,12.17-0.5,17.76,1.96c10.39,4,17.95,14.62,17.87,25.83
		c0.01,118.99,0.01,237.97,0,356.96c-0.02,5.06,0.23,10.15-0.42,15.19c-3.75-8.25-5.35-17.25-8.75-25.62
		c-6.32-16.42-11.94-33.1-18.4-49.46c-0.02-3.03,0.02-6.06-0.07-9.09c-0.8,0.04-2.41,0.1-3.22,0.13c-0.33-0.9-0.68-1.78-1.05-2.64
		c1.44-0.07,2.89-0.13,4.34-0.19c0.15-53.44-0.15-106.88,0.15-160.31c0.16-3.63,0.15-7.26-0.01-10.88
		c-0.37-19.65,0.19-39.31-0.27-58.95l-0.1-0.87c-100.47,0.08-200.95-0.08-301.42,0.08l-0.31,0.72l-0.22,0.72
		c-1.32,3.58-0.84,7.44-0.86,11.17c0.04,11-0.01,22,0.02,33c0.09,4.76-0.6,9.64,0.85,14.27c0.37,3.27,0.33,6.56,0.32,9.85
		c18.25,0.56,36.53,0.07,54.79,0.23c78,0,156,0,234,0c4.1-0.07,8.25-0.28,12.3,0.63c-5.09,0.62-10.21,0.39-15.3,0.4
		c-87.34,0.01-174.67,0-262,0c-8.07,0.16-16.15-0.31-24.2,0.2c-0.47,1.41-0.81,2.87-0.81,4.36c0.06,23.04,0.08,46.07,0,69.1
		c-0.02,1.48,0.46,2.89,0.91,4.28c-4.78,5.96-8.48,12.71-12.14,19.4c-1.96,3.44-2.51,7.44-4.19,10.99
		c-3.23,5.71-5.38,11.95-8.55,17.7c-0.65-1.73-1.4-3.48-1.38-5.36c0.03-27.68,0.02-55.37,0.02-83.05
		c-0.01-4.18,0.49-8.47-0.91-12.51c-0.51-3.81-0.28-7.66-0.31-11.49C294.46,294.67,294.43,248.34,294.46,202.02 M449.35,207.41
		c-5.21,1.04-5.85,9.29-1.38,11.66c2.2,0.97,4.68,0.71,7.03,0.79c17.61-0.19,35.24,0.2,52.85-0.19c5.83-0.16,6.98-9.26,2.22-11.77
		c-2.53-1.12-5.4-0.69-8.07-0.78C484.45,207.38,466.87,206.76,449.35,207.41 M605.39,207.46c-7.87,1.18-14.26,8.55-14.15,16.53
		c-0.35,9,7.74,17.22,16.75,16.94c9.43,0.55,17.98-8.62,16.87-17.98C624.53,213.39,614.81,205.61,605.39,207.46 M572.16,223.45
		c-2.7599,0.01-4.8,2.75-4.16,5.41c0.57,3.69,6.68,4.66,8.13,1.13C577.78,227.22,575.39,223.2,572.16,223.45z"/>
	<path fill="#303030" stroke="#303030" stroke-width="0.3" d="M449.35,207.41c17.52-0.65,35.1-0.03,52.65-0.29
		c2.67,0.09,5.54-0.34,8.07,0.78c4.76,2.51,3.61,11.61-2.22,11.77c-17.61,0.39-35.24,0-52.85,0.19c-2.35-0.08-4.83,0.18-7.03-0.79
		C443.5,216.7,444.14,208.45,449.35,207.41z"/>
	<path fill="#949494" stroke="#949494" stroke-width="0.3" d="M605.39,207.46c9.42-1.85,19.14,5.93,19.47,15.49
		c1.11,9.36-7.44,18.53-16.87,17.98c-9.01,0.28-17.1-7.94-16.75-16.94C591.13,216.01,597.52,208.64,605.39,207.46 M605.28,210.34
		c-6.04,1.08-10.82,6.56-11.2401,12.66c-0.92,7.86,6.08,15.38,13.95,15.26c7.62,0.29,14.41-6.69,14.2-14.26
		C622.37,215.51,613.6,208.25,605.28,210.34z"/>
	<path fill="#303030" stroke="#303030" stroke-width="0.3" d="M605.28,210.34c8.3199-2.09,17.09,5.17,16.91,13.66
		c0.21,7.57-6.58,14.55-14.2,14.26c-7.87,0.12-14.87-7.4-13.95-15.26C594.46,216.9,599.24,211.42,605.28,210.34z"/>
	<path fill="#303030" stroke="#303030" stroke-width="0.3" d="M572.16,223.45c3.23-0.25,5.6201,3.77,3.97,6.54
		c-1.45,3.53-7.56,2.56-8.13-1.13C567.36,226.2,569.4,223.46,572.16,223.45z"/>
	<path fill="#303030" stroke="#303030" stroke-width="0.3" d="M322.41,256.39c100.47-0.16,200.95,0,301.42-0.08l0.1,0.87
		c-58.65,0.1-117.29,0.01-175.93,0.04c-41.97-0.07-83.94,0.15-125.9-0.11L322.41,256.39z"/>
	<path fill="#FFFFFF" stroke="#FFFFFF" stroke-width="0.3" d="M322.1,257.11c41.96,0.26,83.93,0.04,125.9,0.11
		c58.64-0.03,117.28,0.06,175.93-0.04c0.46,19.64-0.1,39.3,0.27,58.95c-56.07-0.06-112.14-0.01-168.2-0.02
		c-44.71,0.11-89.42-0.23-134.11,0.16c0.7-13.73,0.12-27.51,0.3-41.27c-0.02-5.72,0.19-11.46-0.31-17.17L322.1,257.11 M567.98,270.1
		c-0.25,1.65-0.27,3.31-0.11,4.98c5.02,0.62,10.08,0.23,15.13,0.32c8.99-0.21,18.02,0.47,26.99-0.37c0.06-1.63,0.04-3.27-0.07-4.89
		c-5.29-0.66-10.62-0.29-15.92-0.37C585.33,269.96,576.63,269.37,567.98,270.1 M568.14,284.27c-0.18,1.5-0.26,3.02-0.03,4.53
		c7.92,0.94,15.93,0.2,23.89,0.43c5.75-0.23,11.57,0.57,17.26-0.53l0.75,0.06c-0.02-1.5-0.01-3,0.02-4.5l-0.79,0.09
		C595.56,283.94,581.84,284.07,568.14,284.27 M568.12,298.27c-0.19,1.48-0.21,2.99,0,4.48c5.26,0.76,10.58,0.32,15.88,0.43
		c8.41-0.27,16.89,0.59,25.25-0.51l0.79,0.08c-0.02-1.5-0.02-2.99,0-4.48l-0.78,0.07c-4.72-0.84-9.51-0.41-14.26-0.49
		C586.04,298.05,577.05,297.38,568.12,298.27z"/>
	<path fill="#3C3C3C" stroke="#3C3C3C" stroke-width="0.3" d="M321.02,269c0.02-3.73-0.46-7.59,0.86-11.17
		c0.5,5.71,0.29,11.45,0.31,17.17c-0.18,13.76,0.4,27.54-0.3,41.27c-1.45-4.63-0.76-9.51-0.85-14.27
		C321.01,291,321.06,280,321.02,269z"/>
	<path fill="#818181" stroke="#818181" stroke-width="0.3" d="M567.98,270.1c8.65-0.73,17.35-0.14,26.02-0.33
		c5.3,0.08,10.63-0.29,15.92,0.37c0.11,1.62,0.13,3.26,0.07,4.89c-8.97,0.84-18,0.16-26.99,0.37c-5.05-0.09-10.11,0.3-15.13-0.32
		C567.71,273.41,567.73,271.75,567.98,270.1z"/>
	<path fill="#303030" stroke="#303030" stroke-width="0.3" d="M568.14,284.27c13.7-0.2,27.42-0.33,41.1,0.08
		c-13.47,0.76-27-0.16-40.49,0.44c0,0.87-0.01,2.6-0.01,3.47c13.5,0.57,27.03-0.32,40.52,0.44c-5.69,1.1-11.51,0.3-17.26,0.53
		c-7.96-0.23-15.97,0.51-23.89-0.43C567.88,287.29,567.96,285.77,568.14,284.27z"/>
	<path fill="#838383" stroke="#838383" stroke-width="0.3" d="M609.24,284.35l0.79-0.09c-0.03,1.5-0.04,3-0.02,4.5l-0.75-0.06
		c-13.49-0.76-27.02,0.13-40.52-0.44c0-0.87,0.01-2.6,0.01-3.47C582.24,284.19,595.77,285.11,609.24,284.35z"/>
	<path fill="#303030" stroke="#303030" stroke-width="0.3" d="M568.12,298.27c8.93-0.89,17.92-0.22,26.88-0.42
		c4.75,0.08,9.54-0.35,14.26,0.49c-13.49,0.68-27.02-0.17-40.51,0.41c0,0.88-0.01,2.63-0.01,3.5c13.49,0.59,27.02-0.28,40.51,0.42
		c-8.36,1.1-16.84,0.24-25.25,0.51c-5.3-0.11-10.62,0.33-15.88-0.43C567.91,301.26,567.93,299.75,568.12,298.27z"/>
	<path fill="#828282" stroke="#828282" stroke-width="0.3" d="M609.26,298.34l0.78-0.07c-0.02,1.49-0.02,2.98,0,4.48l-0.79-0.08
		c-13.49-0.7-27.02,0.17-40.51-0.42c0-0.87,0.01-2.62,0.01-3.5C582.24,298.17,595.77,299.02,609.26,298.34z"/>
	<path fill="#818181" stroke="#818181" stroke-width="0.3" d="M321.89,316.27c44.69-0.39,89.4-0.05,134.11-0.16
		c56.06,0.01,112.13-0.04,168.2,0.02c0.16,3.62,0.17,7.25,0.01,10.88l-0.91-0.03c-4.05-0.91-8.2-0.7-12.3-0.63c-78,0-156,0-234,0
		c-18.26-0.16-36.54,0.33-54.79-0.23C322.22,322.83,322.26,319.54,321.89,316.27z"/>
	<path fill="#FFFFFF" stroke="#FFFFFF" stroke-width="0.3" d="M321.8,327.58c8.05-0.51,16.13-0.04,24.2-0.2
		c87.33,0,174.66,0.01,262,0c5.09-0.01,10.21,0.22,15.3-0.4l0.91,0.03c-0.3,53.43,0,106.87-0.15,160.31
		c-1.45,0.06-2.9,0.12-4.34,0.19c-1.31-2.81-2.65-5.6-3.75-8.49c-3.4399-8.84-8.15-17.1-12.05-25.73
		c0.79-17.08,0.14-34.2,0.35-51.29c-0.09-17.39,0.19-34.78-0.13-52.16c-52.04-0.34-104.1-0.05-156.14-0.15
		c-35.35,0.1-70.69-0.19-106.03,0.14c-0.15,11.76-0.1,23.52-0.01,35.28c-3.3,2.97-6.01,6.56-9.49,9.35
		c-3.92,3.21-7.35,6.95-10.57,10.86c0.68-17.09,0.11-34.22,0.3-51.32C322,345.2,322.64,336.36,321.8,327.58z"/>
	<path fill="#3C3C3C" stroke="#3C3C3C" stroke-width="0.3" d="M320.99,331.94c0-1.49,0.34-2.95,0.81-4.36
		c0.84,8.78,0.2,17.62,0.4,26.42c-0.19,17.1,0.38,34.23-0.3,51.32c-0.45-1.39-0.93-2.8-0.91-4.28
		C321.07,378.01,321.05,354.98,320.99,331.94z"/>
	<path fill="#F29B75" stroke="#F29B75" stroke-width="0.3" d="M341.97,349.83c35.34-0.33,70.68-0.04,106.03-0.14
		c52.04,0.1,104.1-0.19,156.14,0.15c0.32,17.38,0.04,34.77,0.13,52.16c-0.21,17.09,0.44,34.21-0.35,51.29
		c-6.94-11.58-12.53-24.28-22.37-33.8c-7.91-9.36-21.29-15.6-33.42-11.37c-6.21,1.63-10.65,6.6-15.24,10.76
		c-4.19,3.81-7.57,8.54-9.01,14.07c-3.41,8.61-2.26,18.02-1.58,27c-41.77,0.31-83.55,0.01-125.32,0.15
		c3.75-15.68,7.94-31.9,5.15-48.11c-0.39-3.08-2.64-5.35-4.27-7.82c-2.19-3.16-3.59-6.93-6.62-9.43c-4.2-3.56-8.28-7.57-13.56-9.47
		c-11.37-4.51-24.2-3.6-35.72-0.16C341.87,373.35,341.82,361.59,341.97,349.83z"/>
	<path fill="#FCD8C5" stroke="#FCD8C5" stroke-width="0.3" d="M280.3,379.32c4.96-8.87,8.94-18.28,14.45-26.83
		c-0.5,25.5-0.08,51.01-0.21,76.51c0.17,9.13-0.39,18.29,0.31,27.41c0.8-0.95,1.58-1.91,2.17-3c3.17-5.75,5.32-11.99,8.55-17.7
		c1.68-3.55,2.23-7.55,4.19-10.99c3.66-6.69,7.36-13.44,12.14-19.4c3.22-3.91,6.65-7.65,10.57-10.86c3.48-2.79,6.19-6.38,9.49-9.35
		c11.52-3.44,24.35-4.35,35.72,0.16c5.28,1.9,9.36,5.91,13.56,9.47c3.03,2.5,4.43,6.27,6.62,9.43c1.63,2.47,3.88,4.74,4.27,7.82
		c2.79,16.21-1.4,32.43-5.15,48.11c-3.12,8.97-5.84,18.09-9.3,26.94c-0.45,1.06-0.93,2.11-1.37,3.18c-1.2,2.87-2.23,5.81-3.45,8.68
		c-1.01,2.37-1.98,4.75-2.94,7.15c-4.9,12.04-12.1,23.33-14.32,36.32c-0.55,8.8-3.55,17.17-5.48,25.73
		c-4.45,22.05-8.67,44.17-11.47,66.51c-0.48,5.22-1.39,10.4-2.73,15.47c-1.56,6.19-2.65,12.49-4.39,18.64
		c-0.41,1.21-0.86,2.41-1.33,3.61l-0.33,0.78c-2.26,5.69-4.85,11.24-7.26,16.87c-4.76,11.34-10.67,22.45-19.21,31.43
		c-7.5,6.73-13.8,14.81-18.48,23.73c1.04,12.98,13.16,23.9,26.11,24.26c25.14,0.27,50.3-0.21,75.44,0.24
		c-3.28,5.76-7.41,11.09-12.72,15.11c-8.93,6.96-17.86,14.19-28.3,18.79c-7.82,3.92-15.76,7.67-24.04,10.53
		c0.79,8.47,1.5,17.02,1.2,25.52c-2.08,2.58-4.45,4.91-6.4,7.61c-4.25,6.1-9.95,11.3-12.56,18.44c-3.24,8.43-6.48,16.88-9.84,25.28
		c-5.39,11.76-9.75,24-16.01,35.36c-2.31,4.42-3.97,9.33-7.42,13.05c-2.11,2.65-5.94,1.91-8.74,0.99
		c-20.48-7.58-41.02-15.26-60.24-25.74c-15.58-9.05-29.95-19.95-44.53-30.49c-7.85-6.09-15.43-12.55-22.84-19.17
		c-8.75-8.91-17.72-17.63-25.75-27.2c-5.83-6.83-12.15-13.2599-17.37-20.59c-1.82-2.81-1.31-6.83,0.91-9.28
		c3.01-3.66,6.06-7.3,8.73-11.22c16.97-22.34,29.55-47.53,43.19-71.94c9.38-16.94,15.33-35.44,21.33-53.78
		c0.72-2.33,2.65-4.04,3.42-6.35c1.17-3.56,1.7-7.31,3.14-10.79c1.89-4.73,2.11-9.88,2.98-14.85c2.03-16.01,4.92-31.9,7.05-47.9
		c4.93-31.32,5.01-63.57,14.32-94.06c5.93-8.91,10.44-18.67,16.49-27.49c2.95-4.01,6.96-7.06,10.2-10.82
		c4.2-5.11,9.68-9.04,13.31-14.65c4.72-5.16,7.27-11.85,12.02-16.98c2.68-3.26,3.96-7.35,5.78-11.1
		C268.4,403.34,274.53,391.39,280.3,379.32 M350.52,398.55c-9.98,4.37-15.15,14.6-20.45,23.48c-1.31,1.9-1.13,4.24-0.57,6.37
		c5.91,1.15,11.91,2.27,17.47,4.66c6.78,3.37,13.8,6.46,19.76,11.22c2.84,1.88,5.13,5.51,9.01,4.67
		c6.65-7.23,10.75-17.07,9.36-26.99c-0.14-8.89-7.26-15.48-14.29-19.82C364.97,398.09,357.38,396.87,350.52,398.55z"/>
	<path fill="#303030" stroke="#303030" stroke-width="0.3" d="M294.75,352.49c1.4,4.04,0.9,8.33,0.91,12.51
		c0,27.68,0.01,55.37-0.02,83.05c-0.02,1.88,0.73,3.63,1.38,5.36c-0.59,1.09-1.37,2.05-2.17,3c-0.7-9.12-0.14-18.28-0.31-27.41
		C294.67,403.5,294.25,377.99,294.75,352.49z"/>
	<path fill="#FEEFE8" stroke="#FEEFE8" stroke-width="0.3" d="M350.52,398.55c6.86-1.68,14.45-0.46,20.29,3.59
		c7.03,4.34,14.15,10.93,14.29,19.82c1.39,9.92-2.71,19.76-9.36,26.99c-3.88,0.84-6.17-2.79-9.01-4.67
		c-5.96-4.76-12.98-7.85-19.76-11.22c-5.56-2.39-11.56-3.51-17.47-4.66c-0.56-2.13-0.74-4.47,0.57-6.37
		C335.37,413.15,340.54,402.92,350.52,398.55z"/>
	<path fill="#FCD8C5" stroke="#FCD8C5" stroke-width="0.3" d="M548.13,408.12c12.13-4.23,25.51,2.01,33.42,11.37
		c9.84,9.52,15.43,22.22,22.37,33.8c3.9,8.63,8.61,16.89,12.05,25.73c1.1,2.89,2.44,5.68,3.75,8.49c0.3701,0.86,0.72,1.74,1.05,2.64
		c0.94,3.04,1.98,6.05,3.29,8.96c6.46,16.36,12.08,33.04,18.4,49.46c3.4,8.37,5,17.37,8.75,25.62c0.66,4.95,2.84,9.49,4.21,14.26
		c1.52,5.42,3.24,10.81,5.22,16.09c8.19-7.44,15.84-15.75,25.57-21.22c9.93,0.17,20.31-1.06,29.75,2.83
		c5.19,2.62,11.19,4.0699,15.18,8.6c5.61-4.47,11.98-7.78,18.06-11.54c8.96-5.27,19.8-5.31,29.85-4.29c8,0.76,15.32,4.32,23,6.4
		c4.08-1.36,7.99-4.65,12.57-2.8c9.84,3.73,20.36,6.56,28.82,13.07c3.44,3.34,7.92,6.36,8.68,11.46
		c7.91,24.29,15.1,48.84,20.35,73.86c3.6,15.9301,7.01,31.92,9.45,48.08c2.92,14.18,4.14,28.62,5.76,42.99
		c0.59,13.95,1.99,27.97,0.24,41.9c-0.92,7.56-0.99,15.9-5.79,22.25c-3.64,4.68-6.95,9.64-11.12,13.88
		c-2.59,2.93-5.89,5.28-7.7,8.84c3.21,3.07,6.47,6.17,8.88,9.96c2.02,3.12,4.76,6.15,4.67,10.12c1.32,7.79,0.5,15.88,2.97,23.47
		c3.55,13.12,8.64,25.7599,12.06,38.92c2.54,8.79,5.05,17.61,6.93,26.58c1.03,5.02,3.71,9.79,3.28,15.04
		c-0.0699,2.42-2.47,3.66-4.0699,5.1c-14.4301,10.86-30.63,19.37-47.6801,25.3c-8.98,2.85-18,5.64-27.15,7.8799
		c-31.12,7.0801-63.2,12.39-95.17,8.9301c-3.3101-0.37-7.88-0.04-9.36-3.79c-2.72-6.81-4.47-13.97-6.4-21.03
		c-4.35-13.27-7.46-26.9-11.38-40.3c-5.32-17.6-9.2-35.64-15.88-52.8c-0.88-2.38-0.57-4.96-0.68-7.42
		c-11.37,1.04-22.82,1.93-34.24,1.45c-5.4301-5.18-13.47-5.53-19.29-10.08c-4.58-3.45-9.6-6.27-14.05-9.89
		c-5.03-3.21-9.03-7.68-13.75-11.27c-7.08-6.21-15.52-10.47-23.19-15.85c-9.8-5.1-19.46-10.73-30.11-13.92
		c-3.35-1.19-6.57-2.7-9.89-3.92c-9.5-3.28-16.41-11.2-21.89-19.29c-2.71-3.85-3.56-8.73-6.69-12.3c-1.05-1.17-1.74-2.58-2.05-4.1
		c-3.25-12.64-8.22-24.82-14.79-36.1c-4.33-8.04-9.77-15.37-15.33-22.58c-3.84-7.84-11.18-12.97-16.07-20.07
		c6.84,2.46,9.71,9.82,15.46,13.77c1.02,0.34,2.05,0.34,3.09-0.0099c2.12-2.29,3.48-5.19,5.73-7.38c2.23-2.19,5.12-3.56,7.36-5.74
		c1.12-3.28-0.47-6.9901-3.01-9.16c-6.94-5.97-14.81-12.77-24.67-11.58c-6.36-0.68-10.74,5.61-11.3,11.32
		c-4.94-3.83-8.63-9.22-10.15-15.3c-0.7-3.92-0.49-7.93-0.55-11.89l0.04-1.1c0.87-6.55,5.1-11.99,9.32-16.81
		c1.49-1.46,3.07-2.83,4.69-4.15c10.18-3.67,21.33-2.86,31.94-2.05c6.97,0.11,13.76,1.83,20.7,2.23c4.06,1.48,8.2,2.69,12.24,4.22
		c9.59,3.88,18.78,9.06,26,16.59c5.48,6.13,10.48,12.77,14.06,20.2c3.95,8.08,8.66,15.78,14.14,22.91c0.96,1.36,2.33,2.33,3.76,3.16
		c0.2-4.51-1.95-8.57-3.21-12.77c-3.28-10.99-6.56-22.06-7.77-33.5099c-0.87-5.59-1.64-11.1801-2.49-16.76
		c-0.18-1.39-0.33-2.76-0.45-4.13c-0.77-6.68-1.18-13.39-1.9-20.07c-0.37-3.17-0.91-6.31-1.42-9.45
		c-1.44-7.78,0.35-15.77-1.46-23.51c-3.41-16.49-8.49-32.63-14.84-48.21c-1.54-4.4901-1.81-9.28-3.17-13.81
		c-2.02-7.09-4.36-14.09-5.93-21.3c-0.32-1.25-0.63-2.48-0.92-3.71c-1.63-7.74-4.29-15.21-6.04-22.92
		c-0.58-2.41-1.29-4.79-1.97-7.17c-0.83-2.93-1.33-5.93-1.96-8.9c-0.13-0.65-0.39-1.94-0.52-2.59c-1.71-9.14-4.22-18.13-5.49-27.36
		c-0.68-8.98-1.83-18.39,1.58-27c1.44-5.53,4.82-10.26,9.01-14.07C537.48,414.72,541.92,409.75,548.13,408.12 M558.35,423.38
		c-8,1.52-15.44,6.26-19.73,13.24c-2.77,4.51-1.37,10.02,0.02,14.75c1.3,3.99,1.92,8.28,4.05,11.94c1.09,1.92,3.67,1.76,5.27,0.63
		c9.23-5.77,19.32-10.03,29.65-13.38c1.72-0.69,4.16-1.5,4.39-3.65c0.06-7.37-4.37-13.62-8.75-19.14
		C569.27,424.18,563.71,421.98,558.35,423.38z"/>
	<path fill="#FEEFE8" stroke="#FEEFE8" stroke-width="0.3" d="M558.35,423.38c5.36-1.4,10.92,0.8,14.9,4.39
		c4.38,5.52,8.81,11.77,8.75,19.14c-0.23,2.15-2.67,2.96-4.39,3.65c-10.33,3.35-20.42,7.61-29.65,13.38
		c-1.6,1.13-4.18,1.29-5.27-0.63c-2.13-3.66-2.75-7.95-4.05-11.94c-1.39-4.73-2.79-10.24-0.02-14.75
		C542.91,429.64,550.35,424.9,558.35,423.38z"/>
	<path fill="#FFFFFF" stroke="#FFFFFF" stroke-width="0.3" d="M396.98,460.1c41.77-0.14,83.55,0.16,125.32-0.15
		c1.27,9.23,3.78,18.22,5.49,27.36c-39.93,0.19-79.86,0.04-119.79,0.08c-6.77-0.1-13.56,0.32-20.32-0.35
		C391.14,478.19,393.86,469.07,396.98,460.1z"/>
	<path fill="#727272" stroke="#727272" stroke-width="0.3" d="M386.31,490.22c0.44-1.07,0.92-2.12,1.37-3.18
		c6.76,0.67,13.55,0.25,20.32,0.35c39.93-0.04,79.86,0.11,119.79-0.08c0.13,0.65,0.39,1.94,0.52,2.59
		c-16.08,0.76-32.21,0.13-48.31,0.33C448.77,490.23,417.54,490.25,386.31,490.22z"/>
	<path fill="#FFFFFF" stroke="#FFFFFF" stroke-width="0.3" d="M386.31,490.22c31.23,0.03,62.46,0.01,93.69,0.01
		c16.1-0.2,32.23,0.43,48.31-0.33c0.63,2.97,1.13,5.97,1.96,8.9c-23.75,0.49-47.52,0.07-71.27,0.21
		c-25.38-0.07-50.76,0.14-76.14-0.11C384.08,496.03,385.11,493.09,386.31,490.22z"/>
	<path fill="#FAF8F6" stroke="#FAF8F6" stroke-width="0.3" d="M620.77,490.15c0.81-0.03,2.42-0.09,3.22-0.13
		c0.09,3.03,0.05,6.06,0.07,9.09C622.75,496.2,621.71,493.19,620.77,490.15z"/>
	<path fill="#808080" stroke="#808080" stroke-width="0.3" d="M382.86,498.9c25.38,0.25,50.76,0.04,76.14,0.11
		c23.75-0.14,47.52,0.28,71.27-0.21c0.68,2.38,1.39,4.76,1.97,7.17c-25.07,0.4-50.16,0.06-75.24,0.17
		c-25.7-0.06-51.39,0.13-77.08-0.09C380.88,503.65,381.85,501.27,382.86,498.9z"/>
	<path fill="#FFFFFF" stroke="#FFFFFF" stroke-width="0.3" d="M379.92,506.05c25.69,0.22,51.38,0.03,77.08,0.09
		c25.08-0.11,50.17,0.23,75.24-0.17c1.75,7.71,4.41,15.18,6.04,22.92c-15.4,0.82-30.85,0.14-46.27,0.36
		c-34.09-0.04-68.18,0.1-102.26-0.07c0.05,1.18,0.12,2.36,0.19,3.55c49.76-0.25,99.51,0.03,149.26-0.13
		c1.57,7.21,3.91,14.21,5.93,21.3c1.36,4.53,1.63,9.3199,3.17,13.81c-21.08,0.45-42.18-0.08-63.26,0.27
		c0.06,26.93-0.17,53.86,0.12,80.78c26.95-0.01,53.91-0.25,80.86,0.12c0.72,6.68,1.13,13.39,1.9,20.07
		c-18.76,0.03-37.52-0.15-56.28,0.09c-6.94-0.4-13.73-2.12-20.7-2.23c-10.61-0.81-21.76-1.62-31.94,2.05
		c-28.33,0.17-56.67,0.03-85,0.07c-10.82-0.1-21.65,0.25-32.47-0.21c1.74-6.15,2.83-12.45,4.39-18.64
		c24.01,0.61,48.05,0.09,72.08,0.26c14.64-0.1201,29.28,0.25,43.91-0.17c0.01-27.35,0.07-54.7-0.03-82.05
		c-33.92-0.11-67.84-0.06-101.76-0.02c1.93-8.56,4.93-16.93,5.48-25.73C367.82,529.38,375.02,518.09,379.92,506.05z"/>
	<path fill="#777777" stroke="#777777" stroke-width="0.3" d="M389.75,529.18c34.08,0.17,68.17,0.03,102.26,0.07
		c15.42-0.22,30.87,0.46,46.27-0.36c0.29,1.23,0.6,2.46,0.92,3.71c-49.75,0.16-99.5-0.12-149.26,0.13
		C389.87,531.54,389.8,530.36,389.75,529.18z"/>
	<path fill="#7ECEF4" stroke="#7ECEF4" stroke-width="0.3" d="M360.12,568.1c33.92-0.04,67.84-0.09,101.76,0.02
		c0.1,27.35,0.04,54.7,0.03,82.05c-14.63,0.42-29.27,0.05-43.91,0.17c-24.03-0.17-48.07,0.35-72.08-0.26
		c1.34-5.07,2.25-10.25,2.73-15.47C351.45,612.27,355.67,590.15,360.12,568.1z"/>
	<path fill="#FDF898" stroke="#FDF898" stroke-width="0.3" d="M485.04,567.98c21.08-0.35,42.18,0.18,63.26-0.27
		c6.35,15.58,11.43,31.72,14.84,48.21c1.81,7.74,0.02,15.73,1.46,23.51c0.51,3.14,1.05,6.28,1.42,9.45
		c-26.95-0.37-53.91-0.13-80.86-0.12C484.87,621.84,485.1,594.91,485.04,567.98z"/>
	<path fill="#7E7E7E" stroke="#7E7E7E" stroke-width="0.3" d="M340.2,672.33c0.47-1.2,0.92-2.4,1.33-3.61
		c10.82,0.46,21.65,0.11,32.47,0.21c28.33-0.04,56.67,0.1,85-0.07c-1.62,1.32-3.2,2.69-4.69,4.15c-1.42-0.28-2.84-0.54-4.27-0.6
		C413.43,672.38,376.81,672.53,340.2,672.33z"/>
	<path fill="#7E7E7E" stroke="#7E7E7E" stroke-width="0.3" d="M511.64,669.04c18.76-0.24,37.52-0.06,56.28-0.09
		c0.12,1.37,0.27,2.74,0.45,4.13c-14.82,0.56-29.67,0.25-44.49,0.18C519.84,671.73,515.7,670.52,511.64,669.04z"/>
	<path fill="#303030" stroke="#303030" stroke-width="0.3" d="M340.2,672.33c36.61,0.2,73.23,0.05,109.84,0.08
		c1.43,0.06,2.85,0.32,4.27,0.6c-23.76,0.49-47.54,0.07-71.31,0.21c-14.38-0.0699-28.76,0.15-43.13-0.11L340.2,672.33z"/>
	<path fill="#FFFFFF" stroke="#FFFFFF" stroke-width="0.3" d="M339.87,673.11c14.37,0.26,28.75,0.04,43.13,0.11
		c23.77-0.14,47.55,0.28,71.31-0.21c-4.22,4.82-8.45,10.26-9.32,16.81c-29.33-0.31-58.66-0.05-87.99-0.13
		c-8.13,0.14-16.28-0.33-24.39,0.29C335.02,684.35,337.61,678.8,339.87,673.11z"/>
	<path fill="#FFFFFF" stroke="#FFFFFF" stroke-width="0.3" d="M523.88,673.26c14.82,0.07,29.67,0.38,44.49-0.18
		c0.85,5.58,1.62,11.17,2.49,16.76c-6.99-0.31-14-0.31-20.98,0.0099C542.66,682.32,533.47,677.14,523.88,673.26z"/>
	<path fill="#535353" stroke="#535353" stroke-width="0.3" d="M313.4,721.41c8.54-8.98,14.45-20.09,19.21-31.43
		c3.22,1.62,6.93,0.85,10.39,0.97c33.99-0.05,67.97,0.02,101.95-0.03c0.06,3.96-0.15,7.97,0.55,11.89
		c1.52,6.08,5.21,11.47,10.15,15.3c2.64,2.75,4.87,5.87,7.34,8.78c4.89,7.1,12.23,12.23,16.07,20.07c5.56,7.21,11,14.54,15.33,22.58
		c-32.64,0.21-65.28,0.03-97.92,0.1c-25.14-0.45-50.3,0.03-75.44-0.24c-12.95-0.36-25.07-11.28-26.11-24.26
		C299.6,736.22,305.9,728.14,313.4,721.41z"/>
	<path fill="#383838" stroke="#383838" stroke-width="0.3" d="M332.61,689.98c8.11-0.62,16.26-0.15,24.39-0.29
		c29.33,0.08,58.66-0.18,87.99,0.13l-0.04,1.1c-33.98,0.05-67.96-0.02-101.95,0.03C339.54,690.83,335.83,691.6,332.61,689.98z"/>
	<path fill="#535353" stroke="#535353" stroke-width="0.3" d="M549.88,689.85c6.98-0.3199,13.99-0.3199,20.98-0.0099
		c1.21,11.45,4.49,22.52,7.77,33.5099c1.26,4.2,3.41,8.26,3.21,12.77c-1.4301-0.83-2.8-1.8-3.76-3.16
		c-5.48-7.13-10.19-14.83-14.14-22.91C560.36,702.62,555.36,695.98,549.88,689.85z"/>
	<path fill="#FEEFE8" stroke="#FEEFE8" stroke-width="0.3" d="M455.65,718.11c0.56-5.71,4.94-12,11.3-11.32
		c9.86-1.19,17.73,5.61,24.67,11.58c2.54,2.17,4.13,5.88,3.01,9.16c-2.24,2.18-5.13,3.55-7.36,5.74c-2.25,2.19-3.61,5.09-5.73,7.38
		c-1.04,0.35-2.07,0.35-3.09,0.0099c-5.75-3.95-8.62-11.31-15.46-13.77C460.52,723.98,458.29,720.86,455.65,718.11z"/>
	<path fill="#CCB8D8" stroke="#CCB8D8" stroke-width="0.3" d="M87.33,796.4c0.91-1.1801,2-2.76,3.68-2.6801
		c5.58-0.15,11.14,0.6801,16.72,0.39c0.94,0.83,1.88,1.67,2.82,2.52c-2.67,3.92-5.72,7.56-8.73,11.22
		c-2.22,2.45-2.73,6.47-0.91,9.28c5.22,7.33,11.54,13.76,17.37,20.59c8.03,9.57,17,18.29,25.75,27.2
		c7.41,6.62,14.99,13.08,22.84,19.17c14.58,10.54,28.95,21.44,44.53,30.49c19.22,10.48,39.76,18.16,60.24,25.74
		c2.8,0.92,6.63,1.66,8.74-0.99c3.45-3.72,5.11-8.63,7.42-13.05c8.16,2.4399,13.78,11.96,11.55,20.2
		c-6.85,8.38-14.76,15.81-22.32,23.54c-6.07,6.28-12.89,11.85-18.19,18.84c-6.19,6.11-9.82,14.14-14.73,21.2
		c-5.92,8.46-11.05,17.45-17.43,25.58c-12.68,18.53-25.95,36.65-39.36,54.67c-12.41,17.1299-25.63,33.6599-38.87,50.1499
		c-15.04,18.89-31.05,36.9701-46.55,55.4701C77.71,1224.17,52.95,1251.9,28.6,1280H0V900.51c18.29-13.7,35.77-28.47,52.45-44.08
		c3.59-3.12,4.58-8.01,7.18-11.83C69.77,829.07,78.06,812.44,87.33,796.4z"/>
	<path fill="#CCB8D8" stroke="#CCB8D8" stroke-width="0.3" d="M898.82,967.9c2.36-1.59,5.35-1.58,8.04-0.97
		c5.48,1.97,10.14,6.02,13.51,10.69c0.39,11.79,2.39,23.54,1.68,35.37c-0.16,2.87-0.56,5.84,0.53,8.6
		c3.95,11.39,7.13,23.03,11.31,34.34c3.71,10.8999,7.95,21.62,11.71,32.5199c5.77,17.5601,11.9901,34.9701,17.21,52.7101
		c6.28,20.76,10.99,41.95,16.16,63c4.95,21.59,10.38,43.0599,16.03,64.47V1280H755.6c-11.25-47.08-21.89-94.37-29.18-142.25
		c-3.7-22.96-7.43-45.92-11.66-68.79c-0.71-7.36-3.18-14.4199-3.61-21.7999c-2.9901-4.9701-6.56-9.5601-10.35-13.9401
		c-3.18-3.26-2.03-8.1799-0.7-12c1.64-4.52,2.73-9.46,5.89-13.22c1.5-1.93,4.14-1.92,6.28-2.67c1.93,7.06,3.68,14.22,6.4,21.03
		c1.48,3.75,6.05,3.42,9.36,3.79c31.97,3.46,64.05-1.85,95.17-8.9301c9.15-2.24,18.17-5.03,27.15-7.8799
		c17.05-5.9301,33.25-14.44,47.6801-25.3c1.6-1.44,4-2.68,4.0699-5.1C902.53,977.69,899.85,972.92,898.82,967.9z"/>
</g>
</svg>
