<?xml version="1.0" encoding="UTF-8" standalone="no"?>
<!-- Created with Inkscape (http://www.inkscape.org/) -->

<svg
   xmlns:dc="http://purl.org/dc/elements/1.1/"
   xmlns:cc="http://creativecommons.org/ns#"
   xmlns:rdf="http://www.w3.org/1999/02/22-rdf-syntax-ns#"
   xmlns:svg="http://www.w3.org/2000/svg"
   xmlns="http://www.w3.org/2000/svg"
   xmlns:sodipodi="http://sodipodi.sourceforge.net/DTD/sodipodi-0.dtd"
   xmlns:inkscape="http://www.inkscape.org/namespaces/inkscape"
   width="239.9771mm"
   height="254mm"
   viewBox="0 0 239.9771 254"
   version="1.1"
   id="svg8"
   inkscape:version="0.92.3 (2405546, 2018-03-11)"
   sodipodi:docname="Emirates_logo.svg">
  <defs
     id="defs2" />
  <sodipodi:namedview
     id="base"
     pagecolor="#ffffff"
     bordercolor="#666666"
     borderopacity="1.0"
     inkscape:pageopacity="0.0"
     inkscape:pageshadow="2"
     inkscape:zoom="0.27768672"
     inkscape:cx="587.83101"
     inkscape:cy="588.94198"
     inkscape:document-units="mm"
     inkscape:current-layer="layer1"
     showgrid="false"
     fit-margin-top="0"
     fit-margin-left="0"
     fit-margin-right="0"
     fit-margin-bottom="0"
     inkscape:window-width="1920"
     inkscape:window-height="1005"
     inkscape:window-x="-9"
     inkscape:window-y="-9"
     inkscape:window-maximized="1" />
  <metadata
     id="metadata5">
    <rdf:RDF>
      <cc:Work
         rdf:about="">
        <dc:format>image/svg+xml</dc:format>
        <dc:type
           rdf:resource="http://purl.org/dc/dcmitype/StillImage" />
        <dc:title></dc:title>
      </cc:Work>
    </rdf:RDF>
  </metadata>
  <g
     inkscape:label="Layer 1"
     inkscape:groupmode="layer"
     id="layer1"
     transform="translate(18.690912,-15.029765)">
    <rect
       style="opacity:1;fill:#d71a21;fill-opacity:1;stroke:none;stroke-width:0.16459897;stroke-linecap:square;stroke-linejoin:round;stroke-miterlimit:4;stroke-dasharray:none;stroke-dashoffset:0;stroke-opacity:1;paint-order:normal"
       id="rect863"
       width="239.9771"
       height="254"
       x="-18.690912"
       y="15.029765" />
    <g
       transform="matrix(0.55961691,0,0,0.55961691,-15.323655,42.085128)"
       id="g866"
       style="fill:#ffffff">
      <path
         inkscape:connector-curvature="0"
         style="fill:#ffffff"
         id="path6"
         d="m 227.3,64.2 c -2.7,3.5 -4.2,7.8 -4.2,12.2 0,1.5 0,37 0,38.3 -0.2,2.9 -1.3,5.6 -3.1,7.9 -1,1 -6.9,6.3 -7.4,6.9 l 3.3,0.1 c 1.1,-1 12.5,-11.1 13.6,-12.5 3.3,-3.6 5.2,-8.3 5.2,-13.2 0,-1.6 0,-35.3 0,-36.8 -0.1,-3.7 1.3,-7.4 3.9,-10.1 1.4,-1.5 5.8,-5.2 6.6,-6.1 l -3.5,-0.1 C 241,51.7 228.5,63 227.3,64.2 Z"
         class="st0" />
      <path
         inkscape:connector-curvature="0"
         style="fill:#ffffff"
         id="path8"
         d="m 199.2,203.5 13.9,12.1 h 9.3 c 8.9,0 17.5,-3.5 23.8,-9.8 5.7,-5.7 7.8,-13.4 7.8,-20.6 v -19.9 c -0.1,-4.5 -2,-8.8 -5.4,-11.8 -0.6,-0.6 -4.7,-4.5 -4.7,-4.5 v 15.3 c 0,0 4.5,4.6 5.3,5.5 4.1,4.4 4.1,12.4 -9,25.1 -2.3,2.2 -8.8,8.4 -17.8,8.4 z"
         class="st0" />
      <path
         inkscape:connector-curvature="0"
         style="fill:#ffffff"
         id="path10"
         d="m 237.9,121.8 c -1.5,1.6 -3,5.6 -3,9.2 v 7.5 h 7.6 c 3,0 6.9,-2.7 7.7,-4.1 0,-0.1 0,-7.5 0,-7.5 1.1,1.6 2.5,3.1 4.1,4.3 0.8,-1 7.8,-9.4 13.6,-9.5 9.7,-0.1 7.5,12.2 3.6,16.1 -1.3,1.3 -7,6.5 -8.8,8.2 -4.6,4.4 -12.5,2.3 -12.5,-9 0,0 -8.4,8 -9.7,9.1 -1.3,1.1 -5.6,5.7 -5.6,5.7 v 19.9 c 0,9.5 -3.1,12.7 -5.7,15.6 -1,1.1 -11.7,10.9 -13.2,12 l -3.5,0.1 c 0,0 6.3,-5.7 7.5,-7 1.4,-1.5 3.1,-4.5 3.1,-9.5 0,-1.3 -0.2,-31.2 -0.2,-31.2 h -48.8 c -17,0 -20.6,-18.8 -20.7,-23.9 0,-1.5 0,-16.5 0,-18.9 0,-3.1 -2,-8.3 -5.1,-9.9 h 4.8 c 0.6,0.2 3.6,1.4 3.6,13 0,0 -0.2,13.4 -0.2,14.2 0,5.9 4.7,12.6 11.4,12.6 l 55.2,-0.1 c 0,-1.5 1.5,-7.1 4.2,-10.1 1.5,-1.7 13.4,-12.5 14.7,-13.6 h 3.5 c -0.5,0.5 -6.3,5.6 -7.5,7 v 0 z m 18.1,11.3 c 1.4,1.9 3,3.8 4.7,5.5 6,4.8 8.8,-0.4 4.8,-5.8 -1.6,-2.2 -7.7,-1.6 -9.5,0.3 z"
         class="st0" />
      <path
         inkscape:connector-curvature="0"
         style="fill:#ffffff"
         id="path12"
         d="m 196.8,168.7 c 0,2.7 -8.5,9.8 -9,10.2 -0.6,-2.9 -2.8,-6 -9.1,-12.4 l 9.3,-9.3 c 6.3,6.3 8.8,7.7 8.8,11.5 z"
         class="st0" />
      <path
         inkscape:connector-curvature="0"
         style="fill:#ffffff"
         id="path14"
         d="m 213,61.8 c 1.9,1.9 5.9,6.9 3.5,9.4 -2.1,2.1 -5.4,5.5 -5.4,5.5 -0.2,-1.2 -3.3,-4.2 -3.3,-4.2 0,0 0,9 0,10.1 -0.1,4.1 -1.6,5.2 -1.6,5.2 0,0 7.5,7.4 7.5,17 0,4.6 0,8.9 0,9.8 0.1,1.8 -0.6,3.7 -1.9,5 -0.7,0.8 -7.6,7.8 -8.7,8.7 -1.6,1.4 -3.6,2.2 -5.7,2.1 h -25.9 c -4.1,0 -8.3,-3.2 -8.3,-6.4 0,-0.8 0.1,-9.6 0.1,-9.6 1.3,1.5 2.7,3.3 5.9,3.3 2.6,0 5.2,-2 5.9,-2.8 0.7,-0.8 19.6,-20.4 19.6,-20.4 0,0 -8.8,-8.2 -14.6,-12.1 -2.8,-1.9 -6.6,0.5 -7.2,3 -1.8,7.8 0,19.6 0,19.6 l -7.1,-7.1 c -2.9,-2.9 -2.8,-9.4 0.7,-12.8 0.5,-0.6 5.8,-6.4 12.4,-6.4 h 10.3 c 6.9,0 14.5,6.9 14.5,6.9 0.6,-0.7 1,-1.5 1.1,-2.4 0,-3.6 -0.1,-13.1 -0.1,-13.1 -5.2,-5.2 -5.9,-10.6 -3.4,-13.1 4.7,-4.7 6.4,-6.3 6.4,-6.3 0,0 -0.2,5.7 5.3,11.1 z m -32.5,52 c -2.6,2.7 -3,3.3 -5.4,4.8 h 29.2 c 7.9,0 6.3,-4.9 4.9,-7.4 -2.9,-5.1 -12.1,-14.5 -12.1,-14.5 0,0 -16.1,16.6 -16.6,17.1 z"
         class="st0" />
      <path
         inkscape:connector-curvature="0"
         style="fill:#ffffff"
         id="path16"
         d="m 147.2,140.4 h -4.8 c 0,0 5.1,2.8 5.1,10.1 v 23.3 c 0,15.1 12.5,29.1 27.7,29.1 h 12.7 c 7.6,0 10.3,-1.8 14.9,-5.9 1.7,-1.5 3.9,-4 4.7,-4.9 2.6,-3 5.5,-5.4 5.5,-13.2 v -7.6 c 0,-6.6 -3.8,-9.3 -5.7,-11.2 -1.2,-1.2 -4.4,-4.3 -4.4,-4.3 v 15.6 c 0,0 3.2,3.4 4.6,4.5 6.6,5.2 1.4,14.2 -4.8,14.2 -1.2,0 -26.1,0 -27.9,0 -10.2,0.2 -24.1,-8.9 -24.1,-24.3 v -12.6 c 0.1,-12.8 -3.5,-12.8 -3.5,-12.8 z"
         class="st0" />
      <path
         inkscape:connector-curvature="0"
         style="fill:#ffffff"
         id="path18"
         d="m 177.8,168.8 c 0,2.7 -8.5,9.8 -9,10.2 -0.6,-2.9 -2.8,-6 -9.1,-12.4 l 9.3,-9.3 c 6.2,6.2 8.8,7.6 8.8,11.5 z"
         class="st0" />
      <path
         inkscape:connector-curvature="0"
         style="fill:#ffffff"
         id="path20"
         d="m 80.3,272.3 h -15 c -4.7,0 -4.3,-3.9 -4.8,-7.2 v -21.4 c 0,0 3.3,-0.1 7,-0.1 4.1,0 9.3,-0.6 14.3,2.2 -2.6,-5.5 -8.2,-8.9 -14.3,-8.7 h -6.9 v -6.9 c 0,0 0,-6 -1.5,-7.7 H 69 c 8.5,0 15.1,-0.1 22,4.4 0,0 -1.3,-11.3 -17.8,-11.3 H 41 c 0,0 5.6,4.8 5.4,14.5 l 0.2,39 c 0,9.8 3.9,10.1 3.9,10.1 h 31.7 c 7.2,0 9.7,-5.1 9.7,-7.9 l 0.1,-3.7 c 0,0 -2.3,4.7 -11.7,4.7 z"
         class="st0" />
      <path
         inkscape:connector-curvature="0"
         style="fill:#ffffff"
         id="path22"
         d="m 164.7,269 v -27.3 c 0,-10.6 -8.6,-13.4 -15.1,-13.4 -8.5,0 -11.1,7.1 -12.2,9.6 -1.9,-6.6 -8.6,-9.6 -14,-9.6 -10.3,0 -12.9,9.8 -12.9,9.8 0,0 -0.2,-9.5 -8.5,-9.5 h -8.1 c 0,0 4.7,1.9 4.7,10.1 V 269 c 0,10 4,10.2 4,10.2 H 116 c -3.2,-2.4 -5.1,-6.2 -5.1,-10.3 V 242 c 0.2,-1.2 2.2,-5.2 7.9,-5.2 3.3,0 6.9,3.4 6.8,7.2 v 25 c 0,10.1 4,10.2 4,10.2 H 143 c -3.2,-2.5 -5.1,-6.2 -5.1,-10.3 V 242 c 1.3,-3.9 5.5,-6.1 9.5,-4.8 3,1 5.1,3.7 5.2,6.9 0,0 0,22.8 0,24.9 0.1,10.2 4,10.1 4,10.1 7,0 13.4,0 13.4,0 -3.3,-2.4 -5.2,-6.1 -5.3,-10.1 z"
         class="st0" />
      <path
         inkscape:connector-curvature="0"
         style="fill:#ffffff"
         id="path24"
         d="m 188.1,269 c 0,4 1.9,7.8 5.1,10.2 0,0 -6.4,0 -13.4,0 0,0 -4.1,0.1 -4.1,-10.1 v -30.5 c 0,-8 -4.6,-10.1 -4.6,-10.1 h 8.1 c 2.9,0 8.8,0 8.8,11.3 v 29 0 0 z"
         class="st0" />
      <path
         inkscape:connector-curvature="0"
         style="fill:#ffffff"
         id="path26"
         d="m 229.3,232.4 c 0,0 -1.3,-3.6 -6.8,-3.6 -8.4,0 -10.4,10 -10.4,10 -0.7,-7.9 -2.8,-10.2 -8.7,-10.2 h -8.1 c 0,0 4.7,1.9 4.7,10.1 V 269 c 0,10 4,10.2 4,10.2 h 13.4 c -3.2,-2.4 -5.1,-6.2 -5.1,-10.2 v -24.9 c 0.3,-2.1 1.5,-4 3.3,-5.1 4.5,-3 10.4,-2.1 13.9,2 z"
         class="st0" />
      <path
         inkscape:connector-curvature="0"
         style="fill:#ffffff"
         id="path28"
         d="m 291.6,234.2 c 2.8,0 5.5,0.7 7.9,2 v -7.6 H 288.3 V 217 c -2.4,3.8 -5.5,7.2 -9,10.1 -3.8,3.1 -11.8,7 -11.8,7 l 8.5,0.1 v 35.2 c 0,9.8 4.1,9.8 4.1,9.8 7.3,0 13.3,0 13.3,0 -3.2,-2.3 -5.1,-6 -5.2,-9.9 v -35.1 c 3.6,0 1.2,0 3.4,0 z"
         class="st0" />
      <path
         inkscape:connector-curvature="0"
         style="fill:#ffffff"
         id="path30"
         d="m 332.2,249.5 c -7.5,7.8 -13.4,6.6 -18.1,12.4 0,0 0.8,7.8 6.7,10.5 2,0.9 10.3,3.9 15.6,-5.3 v 8.2 c 0,0 -3.4,4 -14.3,4 C 309,279.3 300,269 300,255 c 0,-13.8 7.3,-26.5 21.2,-26.6 13.5,-0.2 20.9,10.8 11,21.1 z m -8.2,-3.2 c 2.2,-4.1 4,-14.5 -3.6,-13.9 -8.8,0.7 -7.1,24 -7.1,24 2.9,-3.2 7.3,-3.9 10.7,-10.1 z"
         class="st0" />
      <path
         inkscape:connector-curvature="0"
         style="fill:#ffffff"
         id="path32"
         d="m 181.9,224.5 c 3.4,-0.1 6,-2.9 6,-6.2 -0.1,-3.4 -2.9,-6 -6.2,-6 -3.3,0.1 -6,2.8 -6,6.1 0,3.4 2.8,6.1 6.2,6.1 z"
         class="st0" />
      <path
         inkscape:connector-curvature="0"
         style="fill:#ffffff"
         id="path34"
         d="m 243.2,273.4 c -3,0 -5.2,-3.2 -5.2,-6.4 0,-12.6 10.3,-14.4 13.1,-17.7 v 21.3 c -1.3,1 -2.5,2.8 -7.9,2.8 z m 7.9,-29 c -3.1,5.4 -27.3,6.6 -23.6,25.3 1.5,7.4 6.4,9.6 12.6,9.6 6,0 9.7,-3.1 11.2,-6.1 0.9,5.6 3.8,6 3.8,6 7,0 13.4,0 13.4,0 -3.2,-2.4 -5.2,-6.1 -5.2,-10.1 v -28.5 c 0,-6.8 -7.5,-12.1 -15.5,-12.1 -4.5,-0.1 -8.8,1.2 -12.5,3.7 v 8.8 c 0,0 2.8,-7 9.7,-7 6.8,0 7.3,3.4 7.3,5.1 0.1,1.8 -0.2,3.7 -1.2,5.3 z"
         class="st0" />
      <path
         inkscape:connector-curvature="0"
         style="fill:#ffffff"
         id="path36"
         d="m 361.8,265.4 c 0.1,3.6 -3.1,8.3 -9.9,8.3 -7,0 -9.8,-7.1 -9.8,-7.1 v 9 c 3.8,2.4 8.2,3.6 12.7,3.6 9.1,0 18.4,-6.9 18.2,-16.6 -0.1,-3.2 -1.2,-6.3 -3.1,-8.8 -3.1,-4.1 -8.7,-7 -13.1,-9.7 -2.5,-1.5 -3.8,-4.3 -3.8,-5.2 -0.1,-1.7 0.8,-5.1 7.5,-5.1 6.6,0 9.5,7 9.5,7 v -8.5 c -3.7,-2.6 -8.2,-4 -12.8,-4 -8,0 -15.3,5.3 -15.1,12.1 0.1,6 2.6,9.8 7.5,13.5 2.2,1.6 4.5,3 6.9,4.3 3.8,2.1 5.2,4.7 5.3,7.2 z"
         class="st0" />
    </g>
  </g>
</svg>
